<svg id="Calque_1" data-name="Calque 1" xmlns="http://www.w3.org/2000/svg" viewBox="0 0 49 49"><title>logo-final</title><circle cx="24.39" cy="24.61" r="21.93"/><path d="M824.39,363.18A21.43,21.43,0,1,1,803,384.61a21.45,21.45,0,0,1,21.43-21.43m0-1a22.43,22.43,0,1,0,22.43,22.43,22.43,22.43,0,0,0-22.43-22.43Z" transform="translate(-800 -360)"/><path d="M824.5,361A23.5,23.5,0,1,1,801,384.5,23.52,23.52,0,0,1,824.5,361m0-1A24.5,24.5,0,1,0,849,384.5,24.5,24.5,0,0,0,824.5,360Z" transform="translate(-800 -360)"/><path d="M838.05,370a.34.34,0,0,1,0,.26.36.36,0,0,1-.17.23l-9.81,5.74-.56,7.62a.34.34,0,0,1-.17.28l-4.07,2.38a.34.34,0,0,1-.35,0,.36.36,0,0,1-.19-.31l0-12.44-6.16-3.86-2.9,1.7,5.89,3.84a.36.36,0,0,1,.17.31.37.37,0,0,1-.18.3l-3.81,2.23a.39.39,0,0,1-.26,0l-3.63-.77,3.21,5.48,4.64-2.71a.35.35,0,0,1,.49.13.36.36,0,0,1-.12.49l-5,2.89a.36.36,0,0,1-.49-.12l-3.8-6.5a.37.37,0,0,1,0-.39.35.35,0,0,1,.37-.14l4.29.91,3.18-1.87-5.89-3.84a.38.38,0,0,1-.16-.31.37.37,0,0,1,.18-.3l3.59-2.1a.33.33,0,0,1,.37,0l6.51,4.08a.37.37,0,0,1,.16.3l.06,12,3.36-2,.55-7.62a.38.38,0,0,1,.18-.29l9.63-5.62c-.67-.81-2.7-2.79-5.3-1.26l-6.15,3.59a.36.36,0,0,1-.37-.62l6.15-3.59a4.27,4.27,0,0,1,4.69.08A6.72,6.72,0,0,1,838,370Z" transform="translate(-800 -360)" fill="#fff"/><path d="M805.55,393H807l-.13.61h-1.48Z" transform="translate(-800 -360)" fill="#fff"/><path d="M809.49,390.79h2.43l-.14.73H810.2l-.18.89h1.35l-.14.72h-1.35l-.21,1.05h1.63l-.14.72h-2.5Z" transform="translate(-800 -360)" fill="#fff"/><path d="M812,393.69a1.92,1.92,0,0,1,1.84-2,1.12,1.12,0,0,1,.85.38l-.48.51a.55.55,0,0,0-.42-.2c-.5,0-.9.58-.9,1.28,0,.38.17.61.53.61a.78.78,0,0,0,.49-.2l.37.53a1.66,1.66,0,0,1-1,.37A1.19,1.19,0,0,1,812,393.69Z" transform="translate(-800 -360)" fill="#fff"/><path d="M814.7,393.69a1.88,1.88,0,0,1,1.75-2,1.18,1.18,0,0,1,1.22,1.29,1.89,1.89,0,0,1-1.76,2A1.18,1.18,0,0,1,814.7,393.69Zm2.09-.69c0-.38-.15-.61-.44-.61s-.78.55-.78,1.28c0,.38.15.61.44.61S816.79,393.73,816.79,393Z" transform="translate(-800 -360)" fill="#fff"/><path d="M818.07,392.16a1,1,0,0,0,.72-.75l.05-.52.18.42a.42.42,0,0,1-.71-.29.51.51,0,0,1,.52-.52c.28,0,.47.23.47.61a1.48,1.48,0,0,1-1.09,1.43Z" transform="translate(-800 -360)" fill="#fff"/><path d="M820.85,391.77h.87l.1,1.53c0,.32,0,.64,0,1h0c.15-.32.28-.63.42-1l.7-1.53h.84l-1.59,3.13h-1Z" transform="translate(-800 -360)" fill="#fff"/><path d="M823.76,393.69a1.88,1.88,0,0,1,1.76-2,1.18,1.18,0,0,1,1.21,1.29,1.89,1.89,0,0,1-1.75,2A1.18,1.18,0,0,1,823.76,393.69Zm2.1-.69c0-.38-.15-.61-.44-.61s-.78.55-.78,1.28c0,.38.14.61.43.61S825.86,393.73,825.86,393Z" transform="translate(-800 -360)" fill="#fff"/><path d="M826.56,396l.27-.62a.41.41,0,0,0,.23.06.72.72,0,0,0,.59-.45l.08-.15-.55-3.07H828l.15,1.41c0,.28,0,.65.06.95h0l.42-.95.66-1.41h.83l-1.69,3.2c-.43.75-.84,1.16-1.48,1.16A1.14,1.14,0,0,1,826.56,396Z" transform="translate(-800 -360)" fill="#fff"/><path d="M830.08,393.83a2,2,0,0,1,1.67-2.13.76.76,0,0,1,.68.41h0l.14-.34h.69l-.63,3.13h-.7v-.41h0a1.47,1.47,0,0,1-1,.49C830.41,395,830.08,394.57,830.08,393.83Zm1.92,0,.23-1.11a.5.5,0,0,0-.42-.3c-.44,0-.84.57-.84,1.32,0,.38.14.55.37.55A.76.76,0,0,0,832,393.81Z" transform="translate(-800 -360)" fill="#fff"/><path d="M833.28,395.81l.38-.58a1.32,1.32,0,0,0,.8.33.8.8,0,0,0,.81-.65l.16-.56a1.33,1.33,0,0,1-1,.45c-.53,0-.91-.35-.91-1.09a1.87,1.87,0,0,1,1.63-2,.75.75,0,0,1,.67.41h0l.13-.34h.7l-.61,3.08a1.57,1.57,0,0,1-1.66,1.39A2,2,0,0,1,833.28,395.81Zm2.19-2.12.19-1a.46.46,0,0,0-.41-.3c-.43,0-.8.52-.8,1.2,0,.34.14.5.36.5A.8.8,0,0,0,835.47,393.69Z" transform="translate(-800 -360)" fill="#fff"/><path d="M838.73,391.7c.75,0,1,.52,1,1.17a1.8,1.8,0,0,1-.16.71h-1.78a.65.65,0,0,0,.7.75,1.12,1.12,0,0,0,.58-.22l.3.54a1.91,1.91,0,0,1-1.12.33,1.23,1.23,0,0,1-1.28-1.34A1.88,1.88,0,0,1,838.73,391.7Zm.29,1.36a1.66,1.66,0,0,0,0-.24c0-.25-.1-.46-.42-.46s-.6.24-.74.7Z" transform="translate(-800 -360)" fill="#fff"/><path d="M841.52,393H843l-.13.61h-1.48Z" transform="translate(-800 -360)" fill="#fff"/></svg>