<svg id="Calque_1" data-name="Calque 1" xmlns="http://www.w3.org/2000/svg" viewBox="0 0 607.38 422.62"><title>plane</title><path d="M620.55,98.66a8,8,0,0,1-2.86,10.91L399.61,237.1,387.33,406.44a8,8,0,0,1-3.93,6.31l-90.25,52.77a8,8,0,0,1-12-6.84l-1.3-276.34L143.15,96.47,78.72,134.14l130.86,85.4a8,8,0,0,1-.33,13.56L124.6,282.6a8,8,0,0,1-5.68.92L38.23,266.36l71.29,121.91,103.17-60.34a8,8,0,1,1,8.05,13.77L110.68,406.06a8,8,0,0,1-10.9-2.86L15.35,258.84A8,8,0,0,1,23.89,247l95.32,20.27,70.85-41.43L59.21,140.45a8,8,0,0,1,.33-13.56l79.73-46.63a8,8,0,0,1,8.26.13l144.52,90.78a8,8,0,0,1,3.74,6.71L297,444.78l74.69-43.68L384,231.76a8,8,0,0,1,3.92-6.31L601.82,100.37C586.9,82.52,542,38.53,484.06,72.39L347.41,152.3a8,8,0,1,1-8.05-13.76L476,58.63c34.35-20.1,70.35-19.49,104.09,1.76a149.4,149.4,0,0,1,40.15,37.79C620.35,98.34,620.46,98.5,620.55,98.66Z" transform="translate(-14.26 -43.99)"/></svg>